{"title":"Teresa Villaverde - Agua e Sal (2001)","uid":5758001,"size":1577031680,"categoryP":"video","categoryS":"movies","magnet":"?xt=urn:btih:dd42cff33320e56c0c0108caa90963c1b8c740d6&amp;dn=Teresa+Villaverde+-+Agua+e+Sal+%282001%29&amp;tr=udp%3A%2F%2Ftracker.openbittorrent.com%3A80&amp;tr=udp%3A%2F%2Fopen.demonii.com%3A1337&amp;tr=udp%3A%2F%2Ftracker.coppersurfer.tk%3A6969&amp;tr=udp%3A%2F%2Fexodus.desync.com%3A6969","seeders":0,"leechers":0,"uploader":"mfccorrea","files":1,"time":1281629442,"description":"Ana lives in a little village by the sea, with her husband and her daughter. He decides to leave for a few days. That seems to be the ideal solution, because Ana needs some time to finish a work she has been doing for a long time. But her concentration seems threatened when she starts doing her daily walks to the village and the beach. She saves a stranger from drowning, meets young Alexandre and Emilia, and her friend Vera turns up in her house.\n\n   General\n      Complete name : Agua e Sal (Teresa Villaverde, 2001).avi\n      Format : AVI\n      Format/Info : Audio Video Interleave\n      File size : 1.47 GiB\n      Duration : 1h 55mn\n      Overall bit rate : 1 820 Kbps\n      Writing application : VirtualDubMod 1.5.10.2 (build 2540/release)\n      Writing library : VirtualDubMod build 2540/release\n   Video #0\n      ID : 0\n      Format : MPEG-4 Visual\n      Format profile : AdvancedSimple@L5\n      Format settings, BVOP : Yes\n      Format settings, QPel : No\n      Format settings, GMC : No warppoints\n      Format settings, Matrix : Default (MPEG)\n      Codec ID : XVID\n      Codec ID/Hint : XviD\n      Duration : 1h 55mn\n      Bit rate : 1 618 Kbps\n      Width : 704 pixels\n      Height : 384 pixels\n      Display aspect ratio : 16:9\n      Frame rate : 25.000 fps\n      Resolution : 24 bits\n      Colorimetry : 4:2:0\n      Scan type : Progressive\n      Bits/(Pixel*Frame) : 0.239\n      Stream size : 1.31 GiB (89%)\n      Writing library : XviD 1.2.1 (UTC 2008-12-04)\n   Audio #1\n      ID : 1\n      Format : AC-3\n      Format/Info : Audio Coding 3\n      Codec ID : 2000\n      Duration : 1h 55mn\n      Bit rate mode : Constant\n      Bit rate : 192 Kbps\n      Channel(s) : 2 channels\n      Channel positions : L R\n      Sampling rate : 48.0 KHz\n      Stream size : 159 MiB (11%)\n      Alignment : Split accross interleaves\n      Interleave, duration : 40 ms (1.00 video frame)\n      Interleave, preload duration : 500 ms\n &lt;a href=&quot;\nhttp://www.imdb.com/title/tt0235110/&quot; rel=&quot;nofollow&quot; target=&quot;_NEW&quot;&gt;\nhttp://www.imdb.com/title/tt0235110/&lt;/a&gt;\n\nPortuguese audio; no subtitles\n\nPosted at KG by duder\n\nTeresa Villaverde - Agua e Sal (2001)","torrent":{"xt":"urn:btih:dd42cff33320e56c0c0108caa90963c1b8c740d6","amp;dn":"Teresa+Villaverde+-+Agua+e+Sal+%282001%29","amp;tr":["udp%3A%2F%2Ftracker.openbittorrent.com%3A80","udp%3A%2F%2Fopen.demonii.com%3A1337","udp%3A%2F%2Ftracker.coppersurfer.tk%3A6969","udp%3A%2F%2Fexodus.desync.com%3A6969"],"infoHash":"dd42cff33320e56c0c0108caa90963c1b8c740d6","infoHashBuffer":{"type":"Buffer","data":[221,66,207,243,51,32,229,108,12,1,8,202,169,9,99,193,184,199,64,214]},"announce":[],"urlList":[]}}